<svg xmlns="http://www.w3.org/2000/svg" version="1.1" xmlns:xlink="http://www.w3.org/1999/xlink" xmlns:svgjs="http://svgjs.dev/svgjs" width="1500" height="1500" viewBox="0 0 1500 1500"><rect width="1500" height="1500" fill="#ffffff"></rect><g transform="matrix(0.6666666666666666,0,0,0.6666666666666666,249.65226337448553,242.41133603238865)"><svg viewBox="0 0 243 247" data-background-color="#ffffff" preserveAspectRatio="xMidYMid meet" height="1524" width="1500" xmlns="http://www.w3.org/2000/svg" xmlns:xlink="http://www.w3.org/1999/xlink"><g id="tight-bounds" transform="matrix(1,0,0,1,0.08450000000001978,-0.09999999999999432)"><svg viewBox="0 0 242.83071502918375 247.2" height="247.2" width="242.83071502918375"><g><svg></svg></g><g><svg viewBox="0 0 242.83071502918375 247.2" height="247.2" width="242.83071502918375"><g transform="matrix(1,0,0,1,0,47.215199999999996)"><svg viewBox="0 0 242.83071502918375 152.7696" height="152.7696" width="242.83071502918375"><g><svg viewBox="0 0 242.83071502918375 152.7696" height="152.7696" width="242.83071502918375"><g><svg viewBox="0 0 244.43135999999998 153.77659737224025" height="152.7696" width="242.83071502918375"><g transform="matrix(1,0,0,1,0,95.04010638716562)"><svg viewBox="0 0 244.43135999999998 58.73649098507463" height="58.73649098507463" width="244.43135999999998"><g id="textblocktransform"><svg viewBox="0 0 244.43135999999998 58.73649098507463" height="58.73649098507463" width="244.43135999999998" id="textblock"><g><svg viewBox="0 0 244.43135999999998 58.73649098507463" height="58.73649098507463" width="244.43135999999998"><g transform="matrix(1,0,0,1,0,0)"><svg width="244.43135999999998" viewBox="1.75 -35.85 200.98 48.3" height="58.73649098507463" data-palette-color="#000000"><path d="M24.8-14.95L24.8-6.35Q24.8-3.75 25.53-2.88 26.25-2 27.75-2L27.75-2Q27.9-1.55 27.95-1.05 28-0.55 28 0.15L28 0.15Q26.9 0.05 25.5 0.03 24.1 0 22.55 0L22.55 0Q21.55 0 20.45 0.03 19.35 0.05 18.38 0.08 17.4 0.1 16.6 0.15L16.6 0.15Q16.6-0.55 16.65-1.07 16.7-1.6 16.85-2L16.85-2Q18.65-2 19.48-2.93 20.3-3.85 20.3-6.35L20.3-6.35 20.3-13.95Q20.3-17.5 19-18.78 17.7-20.05 15.65-20.05L15.65-20.05Q14.35-20.05 13.05-19.23 11.75-18.4 10.88-16.57 10-14.75 10-11.7L10-11.7 10-6.35Q10-3.85 10.75-2.93 11.5-2 13.45-2L13.45-2Q13.6-1.55 13.65-1.05 13.7-0.55 13.7 0.15L13.7 0.15Q13 0.1 12 0.08 11 0.05 9.9 0.03 8.8 0 7.75 0L7.75 0Q6.75 0 5.65 0.03 4.55 0.05 3.55 0.08 2.55 0.1 1.8 0.15L1.8 0.15Q1.8-0.55 1.85-1.07 1.9-1.6 2.05-2L2.05-2Q4-2 4.75-2.93 5.5-3.85 5.5-6.35L5.5-6.35 5.5-16.25 10-21.15Q10-20.55 9.95-19.8 9.9-19.05 9.65-18.2L9.65-18.2Q9.8-18.45 9.95-18.78 10.1-19.1 10.4-19.5L10.4-19.5Q11.25-20.65 13.13-21.88 15-23.1 17.65-23.1L17.65-23.1Q19.55-23.1 21.18-22.33 22.8-21.55 23.8-19.78 24.8-18 24.8-14.95L24.8-14.95ZM5.5-26.9L5.5-28.75Q5.5-29.95 5.28-30.73 5.05-31.5 4.25-31.9 3.45-32.3 1.75-32.3L1.75-32.3Q1.75-32.85 1.85-33.3 1.95-33.75 2.2-34.15L2.2-34.15Q2.95-34.15 4.33-34.4 5.7-34.65 7-35.05 8.3-35.45 8.9-35.85L8.9-35.85Q9.35-35.7 9.68-35.25 10-34.8 10-33.85L10-33.85 10-26.9 5.5-26.9ZM5.5-15.5L5.5-28.75 10-28.75 10-21.15 5.5-15.5ZM46.95 0.45L46.95 0.45Q46.4 0.2 46.07-0.45 45.75-1.1 45.75-2.5L45.75-2.5Q45.75-2.95 45.8-3.58 45.85-4.2 46-4.7L46-4.7 46.1-4.7Q45.95-3.9 45.42-2.98 44.9-2.05 44.05-1.35L44.05-1.35Q43.2-0.6 41.9-0.13 40.6 0.35 38.75 0.35L38.75 0.35Q35.6 0.35 33.95-1.07 32.3-2.5 32.3-4.95L32.3-4.95Q32.3-6.9 33.22-8.28 34.15-9.65 35.62-10.58 37.1-11.5 38.82-12.05 40.55-12.6 42.2-12.9 43.85-13.2 45.1-13.4L45.1-13.4Q45.1-15.45 45.02-16.6 44.95-17.75 44.72-18.43 44.5-19.1 44.05-19.6L44.05-19.6Q43.45-20.35 42.67-20.73 41.9-21.1 40.95-21.1L40.95-21.1Q39.3-21.1 38.35-20.08 37.4-19.05 37-17.7 36.6-16.35 36.55-15.3L36.55-15.3Q36-15.3 35.17-15.38 34.35-15.45 33.95-15.65L33.95-15.65Q34.05-16.9 34-18.45 33.95-20 33.7-21.1L33.7-21.1Q35.75-22.15 38.02-22.75 40.3-23.35 42.2-23.35L42.2-23.35Q44.05-23.35 45.37-22.83 46.7-22.3 47.5-21.45L47.5-21.45Q48.8-20.2 49.2-18.18 49.6-16.15 49.6-12.8L49.6-12.8 49.6-7.3Q49.6-5.9 49.82-5.08 50.05-4.25 50.7-3.88 51.35-3.5 52.7-3.4L52.7-3.4Q52.7-2.9 52.65-2.27 52.6-1.65 52.4-1.1L52.4-1.1Q51.15-1.05 49.62-0.63 48.1-0.2 46.95 0.45ZM40.15-2.4L40.15-2.4Q41.25-2.4 42.4-3.13 43.55-3.85 44.32-5.4 45.1-6.95 45.1-9.45L45.1-9.45 45.1-11.35Q43.85-11.2 42.45-10.93 41.05-10.65 39.85-10.1 38.65-9.55 37.9-8.58 37.15-7.6 37.15-5.95L37.15-5.95Q37.15-4.1 38.05-3.25 38.95-2.4 40.15-2.4ZM64.75-11.35L64.75-7.35Q64.75-5.2 65.2-4.08 65.65-2.95 66.65-2.53 67.65-2.1 69.2-2L69.2-2Q69.35-1.6 69.4-1.07 69.45-0.55 69.45 0.15L69.45 0.15Q68.7 0.1 67.67 0.08 66.65 0.05 65.5 0.03 64.35 0 63.15 0L63.15 0Q61.4 0 59.47 0.03 57.55 0.05 56.55 0.15L56.55 0.15Q56.55-0.55 56.6-1.07 56.65-1.6 56.8-2L56.8-2Q58.15-2.1 58.9-2.48 59.65-2.85 59.95-3.78 60.25-4.7 60.25-6.35L60.25-6.35 60.25-11.35 64.75-11.35ZM63.9-15.35L64.75-14.65 64.75-10.7 60.25-10.7 60.25-16.25 64.75-21.15Q64.75-19.45 64.45-18.07 64.15-16.7 63.9-15.35L63.9-15.35ZM64.75-12.15L63.65-15.05Q64.2-16.45 64.5-17.35 64.8-18.25 65.15-18.85L65.15-18.85Q66.25-20.6 67.75-21.75 69.25-22.9 71.2-22.9L71.2-22.9Q73.1-22.9 74.65-21.7L74.65-21.7Q74.55-20.9 74.45-19.85 74.35-18.8 74.32-17.75 74.3-16.7 74.3-15.8L74.3-15.8Q73.85-15.65 73.07-15.5 72.3-15.35 71.45-15.35L71.45-15.35Q71.35-17.75 70.67-18.5 70-19.25 69-19.25L69-19.25Q68.15-19.25 67.15-18.28 66.15-17.3 65.45-15.7 64.75-14.1 64.75-12.15L64.75-12.15ZM64.75-21.15L60.25-10.7 60.25-16.25Q60.25-17.45 60-18.2 59.75-18.95 58.95-19.35 58.15-19.75 56.5-19.8L56.5-19.8Q56.5-20.35 56.6-20.8 56.7-21.25 56.95-21.65L56.95-21.65Q58.5-21.75 60.5-22.25 62.5-22.75 63.65-23.35L63.65-23.35Q64.1-23.2 64.42-22.73 64.75-22.25 64.75-21.15L64.75-21.15ZM90.09-23.35L90.09-23.35Q91.54-23.35 92.62-23.1 93.69-22.85 94.94-22.45L94.94-22.45 94.94-18.6Q93.94-19.65 92.77-20.35 91.59-21.05 89.84-21.05L89.84-21.05Q88.79-21.05 87.57-20.63 86.34-20.2 85.19-19.15 84.04-18.1 83.32-16.2 82.59-14.3 82.59-11.3L82.59-11.3Q82.59-8.1 83.54-6.23 84.49-4.35 85.79-3.53 87.09-2.7 88.19-2.7L88.19-2.7Q89.69-2.7 91.07-3.63 92.44-4.55 93.34-6.65 94.24-8.75 94.24-12.25L94.24-12.25 95.69-6.95Q95.04-5.35 94.57-4.5 94.09-3.65 93.84-3.25L93.84-3.25Q93.39-2.5 92.42-1.65 91.44-0.8 90.07-0.18 88.69 0.45 86.99 0.45L86.99 0.45Q84.09 0.45 81.99-0.73 79.89-1.9 78.77-4.35 77.64-6.8 77.64-10.65L77.64-10.65Q77.64-14.15 79.19-17.03 80.74-19.9 83.54-21.63 86.34-23.35 90.09-23.35ZM95.29-6.8L98.74-6.8Q98.74-5.65 98.94-4.88 99.14-4.1 99.82-3.75 100.49-3.4 101.84-3.4L101.84-3.4Q101.84-2.9 101.79-2.27 101.74-1.65 101.54-1.1L101.54-1.1Q100.29-1.05 98.64-0.63 96.99-0.2 95.84 0.45L95.84 0.45Q95.34 0.2 94.97-0.28 94.59-0.75 94.59-2.45L94.59-2.45Q94.59-3.45 94.77-4.23 94.94-5 95.29-6.8L95.29-6.8ZM94.24-28.75L98.74-28.75 98.74-6.35 94.24-6.35 94.24-28.75ZM97.64-35.85L97.64-35.85Q98.09-35.7 98.42-35.25 98.74-34.8 98.74-33.85L98.74-33.85 98.74-26.9 94.24-26.9 94.24-28.75Q94.24-29.95 94.02-30.73 93.79-31.5 92.99-31.9 92.19-32.3 90.49-32.3L90.49-32.3Q90.49-32.85 90.59-33.3 90.69-33.75 90.94-34.15L90.94-34.15Q91.69-34.15 93.04-34.4 94.39-34.65 95.72-35.05 97.04-35.45 97.64-35.85ZM121.59-21.6L121.59-21.6Q121.54-20.4 121.52-19.05 121.49-17.7 121.69-16.4L121.69-16.4Q121.19-16.1 120.54-15.95 119.89-15.8 119.19-15.8L119.19-15.8Q119.09-17.2 118.37-18.45 117.64-19.7 116.44-20.5 115.24-21.3 113.59-21.3L113.59-21.3Q112.04-21.3 111.12-20.55 110.19-19.8 110.19-18.55L110.19-18.55Q110.19-17.7 110.57-17.05 110.94-16.4 112.22-15.68 113.49-14.95 116.14-13.9L116.14-13.9Q118.84-12.9 120.39-11.9 121.94-10.9 122.59-9.65 123.24-8.4 123.24-6.6L123.24-6.6Q123.24-4.5 122.04-2.9 120.84-1.3 118.77-0.43 116.69 0.45 114.09 0.45L114.09 0.45Q111.09 0.45 109.32-0.03 107.54-0.5 105.84-1.4L105.84-1.4Q105.94-2.2 105.97-3.35 105.99-4.5 105.99-5.65 105.99-6.8 105.89-7.6L105.89-7.6Q106.29-7.9 107.02-8.03 107.74-8.15 108.49-8.15L108.49-8.15Q108.89-5 110.44-3.45 111.99-1.9 114.59-1.9L114.59-1.9Q116.64-1.9 117.77-2.8 118.89-3.7 118.89-5.1L118.89-5.1Q118.89-6 118.47-6.65 118.04-7.3 116.89-7.95 115.74-8.6 113.49-9.5L113.49-9.5Q110.79-10.6 109.17-11.55 107.54-12.5 106.82-13.8 106.09-15.1 106.09-17.1L106.09-17.1Q106.09-18.7 106.89-19.88 107.69-21.05 108.97-21.83 110.24-22.6 111.69-22.98 113.14-23.35 114.39-23.35L114.39-23.35Q116.64-23.35 118.34-22.9 120.04-22.45 121.59-21.6ZM140.74-6.2L144.19-14.9Q145.49-18.1 144.81-19.28 144.14-20.45 141.94-20.85L141.94-20.85Q141.74-21.4 141.66-21.93 141.59-22.45 141.59-23L141.59-23Q142.74-22.95 143.94-22.93 145.14-22.9 146.54-22.9L146.54-22.9Q147.94-22.9 149.19-22.93 150.44-22.95 151.54-23L151.54-23Q151.54-22.5 151.51-21.95 151.49-21.4 151.24-20.85L151.24-20.85Q150.34-20.65 149.71-20.15 149.09-19.65 148.54-18.6 147.99-17.55 147.19-15.65L147.19-15.65 139.84 1.85Q138.44 5.25 137.31 7.35 136.19 9.45 135.21 10.55 134.24 11.65 133.26 12.05 132.29 12.45 131.14 12.45L131.14 12.45Q129.64 12.45 128.76 12.05 127.89 11.65 127.39 11.3L127.39 11.3Q127.19 10.55 127.24 9.43 127.29 8.3 127.44 7.65L127.44 7.65Q128.29 7.8 129.09 7.88 129.89 7.95 130.64 7.95L130.64 7.95Q132.09 7.95 133.41 7.25 134.74 6.55 135.69 5L135.69 5Q136.39 3.95 137.79 0.88 139.19-2.2 140.74-6.2L140.74-6.2ZM140.59-4.25L138.34 1.05Q137.14-1.6 135.81-4.53 134.49-7.45 133.29-10.15 132.09-12.85 131.19-14.7L131.19-14.7Q130.04-17.2 129.26-18.45 128.49-19.7 127.81-20.2 127.14-20.7 126.29-20.85L126.29-20.85Q126.14-21.3 126.06-21.85 125.99-22.4 125.99-23L125.99-23Q127.44-22.95 128.89-22.93 130.34-22.9 131.64-22.9L131.64-22.9Q132.94-22.9 134.84-22.93 136.74-22.95 138.29-23L138.29-23Q138.29-22.35 138.21-21.83 138.14-21.3 137.94-20.85L137.94-20.85Q135.24-20.4 134.84-19.28 134.44-18.15 135.79-15.35L135.79-15.35Q136.49-13.9 137.39-11.88 138.29-9.85 139.14-7.83 139.99-5.8 140.59-4.25L140.59-4.25ZM162.34-21.15L157.84-10.7 157.84-16.25Q157.84-17.45 157.59-18.2 157.34-18.95 156.54-19.35 155.74-19.75 154.09-19.8L154.09-19.8Q154.09-20.35 154.19-20.8 154.29-21.25 154.54-21.65L154.54-21.65Q156.09-21.75 158.09-22.25 160.09-22.75 161.24-23.35L161.24-23.35Q161.69-23.2 162.01-22.73 162.34-22.25 162.34-21.15L162.34-21.15ZM177.14-14.95L177.14-6.35Q177.14-3.75 177.86-2.88 178.59-2 180.09-2L180.09-2Q180.24-1.55 180.29-1.05 180.34-0.55 180.34 0.15L180.34 0.15Q179.24 0.05 177.84 0.03 176.44 0 174.89 0L174.89 0Q173.89 0 172.79 0.03 171.69 0.05 170.71 0.08 169.74 0.1 168.94 0.15L168.94 0.15Q168.94-0.55 168.99-1.07 169.04-1.6 169.19-2L169.19-2Q170.99-2 171.81-2.93 172.64-3.85 172.64-6.35L172.64-6.35 172.64-13.95Q172.64-17.5 171.34-18.78 170.04-20.05 167.99-20.05L167.99-20.05Q166.69-20.05 165.39-19.23 164.09-18.4 163.21-16.57 162.34-14.75 162.34-11.7L162.34-11.7 162.34-6.35Q162.34-3.85 163.09-2.93 163.84-2 165.79-2L165.79-2Q165.94-1.55 165.99-1.05 166.04-0.55 166.04 0.15L166.04 0.15Q165.34 0.1 164.34 0.08 163.34 0.05 162.24 0.03 161.14 0 160.09 0L160.09 0Q159.09 0 157.99 0.03 156.89 0.05 155.89 0.08 154.89 0.1 154.14 0.15L154.14 0.15Q154.14-0.55 154.19-1.07 154.24-1.6 154.39-2L154.39-2Q156.34-2 157.09-2.93 157.84-3.85 157.84-6.35L157.84-6.35 157.84-16.25 162.34-21.15Q162.34-20.55 162.29-19.8 162.24-19.05 161.99-18.2L161.99-18.2Q162.14-18.45 162.29-18.78 162.44-19.1 162.74-19.5L162.74-19.5Q163.59-20.65 165.46-21.88 167.34-23.1 169.99-23.1L169.99-23.1Q171.89-23.1 173.51-22.33 175.14-21.55 176.14-19.78 177.14-18 177.14-14.95L177.14-14.95ZM202.73-3.9L202.73-3.9Q201.38-1.75 199.38-0.65 197.38 0.45 194.53 0.45L194.53 0.45Q191.98 0.45 189.61-0.88 187.23-2.2 185.68-4.83 184.13-7.45 184.13-11.35L184.13-11.35Q184.13-14.35 185.33-17.1 186.53-19.85 188.86-21.6 191.18-23.35 194.53-23.35L194.53-23.35Q196.83-23.35 198.76-22.8 200.68-22.25 202.08-21.1L202.08-21.1Q201.88-19.65 201.81-18.25 201.73-16.85 201.73-15.4L201.73-15.4Q201.33-15.2 200.66-15.1 199.98-15 199.43-15L199.43-15Q199.13-17.9 197.73-19.45 196.33-21 194.13-21L194.13-21Q191.68-21 190.23-18.7 188.78-16.4 188.78-12.1L188.78-12.1Q188.78-9.6 189.61-7.38 190.43-5.15 192.03-3.78 193.63-2.4 195.93-2.4L195.93-2.4Q197.53-2.4 198.96-3.15 200.38-3.9 201.48-5.3L201.48-5.3Q201.88-5.1 202.23-4.73 202.58-4.35 202.73-3.9Z" opacity="1" transform="matrix(1,0,0,1,0,0)" fill="#000000" class="wordmark-text-0" data-fill-palette-color="primary" id="text-0"></path></svg></g></svg></g></svg></g></svg></g><g transform="matrix(1,0,0,1,67.10313684744627,0)"><svg viewBox="0 0 110.22508630510745 81.17383054137315" height="81.17383054137315" width="110.22508630510745"><g><svg xmlns="http://www.w3.org/2000/svg" xmlns:xlink="http://www.w3.org/1999/xlink" xmlns:a="http://ns.adobe.com/AdobeSVGViewerExtensions/3.0/" version="1.1" x="0" y="0" viewBox="0.001552363777185619 -0.00010033361626438086 81.38554261456213 59.93532385563714" enable-background="new -10 -20 100 100" xml:space="preserve" height="81.17383054137315" width="110.22508630510745" class="icon-icon-0" data-fill-palette-color="accent" id="icon-0"><path d="M62.457 8.682l0.029 0.029 0.017 0.017 0.006 0.006 0.02 0.02 0.004 0.003 0.006 0.007c0.056 0.036 0.065 0.059 0.098 0.091 5.549 5.549 8.746 13.151 8.866 21.005l8.846-0.063c0.421 0.001 0.81 0.257 0.957 0.636 0.16 0.387 0.082 0.835-0.223 1.139l-14.46 14.461c-0.406 0.406-1.067 0.403-1.467 0.003L50.869 31.75l-0.032-0.033c-0.406-0.406-0.406-1.063 0-1.469 0.272-0.272 0.657-0.361 1.005-0.271l8.717-0.053c-0.091-5.047-2.086-9.759-5.763-13.434-7.545-7.456-19.799-7.421-27.42 0.2-2.334-2.335-2.502-2.715-7.632-7.845C31.473-2.884 50.616-2.958 62.457 8.682" fill="#000000" data-fill-palette-color="accent"></path><path d="M18.931 51.255l-0.031-0.03-0.016-0.017-0.006-0.007-0.018-0.018-0.005-0.005-0.006-0.007c-0.057-0.03-0.063-0.057-0.095-0.088-5.552-5.552-8.749-13.146-8.868-21.002l-8.845 0.06c-0.423 0-0.811-0.259-0.959-0.638-0.161-0.385-0.077-0.837 0.222-1.135l14.463-14.464c0.405-0.405 1.063-0.403 1.467 0l14.281 14.282 0.034 0.034c0.405 0.405 0.405 1.063 0 1.468-0.274 0.274-0.66 0.363-1 0.265l-8.72 0.061c0.087 5.045 2.086 9.753 5.762 13.429 7.544 7.462 19.799 7.424 27.417-0.194 2.282 2.281 5.12 5.335 7.63 7.846C49.916 62.817 30.773 62.893 18.931 51.255" fill="#000000" data-fill-palette-color="accent"></path></svg></g></svg></g><g></g></svg></g></svg></g></svg></g><path d="M0 41.215L0 1 242.831 1 242.831 41.215 237.568 41.215 237.568 6.262 5.262 6.262 5.262 41.215 0 41.215M0 205.985L0 246.2 242.831 246.2 242.831 205.985 237.568 205.985 237.568 240.938 5.262 240.938 5.262 205.985 0 205.985" fill="#000000" stroke="transparent" data-fill-palette-color="tertiary"></path></svg></g><defs></defs></svg><rect width="242.83071502918375" height="247.2" fill="none" stroke="none" visibility="hidden"></rect></g></svg></g></svg>